PathFileType	4	(X/Y/Z)	34_2_88_p1_0-829.trc
DataRate	CameraRate	NumFrames	NumMarkers	Units	OrigDataRate	OrigDataStartFrame	OrigNumFrames
60.0	60.0	7	27	m	60.0	207	830
Frame#	Time	RHip			RKnee			RAnkle			RBigToe			RSmallToe			RHeel			LHip			LKnee			LAnkle			LBigToe			LSmallToe			LHeel			Neck			Head			Nose			RShoulder			RElbow			RWrist			RThumb			RIndex			RPinky			LShoulder			LElbow			LWrist			LThumb			LIndex			LPinky			
		X1	Y1	Z1	X2	Y2	Z2	X3	Y3	Z3	X4	Y4	Z4	X5	Y5	Z5	X6	Y6	Z6	X7	Y7	Z7	X8	Y8	Z8	X9	Y9	Z9	X10	Y10	Z10	X11	Y11	Z11	X12	Y12	Z12	X13	Y13	Z13	X14	Y14	Z14	X15	Y15	Z15	X16	Y16	Z16	X17	Y17	Z17	X18	Y18	Z18	X19	Y19	Z19	X20	Y20	Z20	X21	Y21	Z21	X22	Y22	Z22	X23	Y23	Z23	X24	Y24	Z24	X25	Y25	Z25	X26	Y26	Z26	X27	Y27	Z27	
207	3.45	0.4132210111931448	0.46048842596918216	0.940186273948416	0.40455305961523913	0.6566783602715667	1.3698630426951823	0.38716184050275915	0.8031963965733337	1.7525711927621632	0.34814067448189273	0.592086994198484	1.7811475389931968	0.4059079965612172	0.5996672975274631	1.7859675262894834	0.35336179641653254	0.8829215983622842	1.7981856190435326	0.18884891330697676	0.5408292724553221	0.9578241717170773	0.1773136284711616	0.6607990156219677	1.367201818905033	0.18588759505817606	0.7464403818331806	1.7439745317107913	0.19493089395423802	0.5551157618230798	1.7684306582548432	0.14178379550128395	0.6121481861906822	1.7827803213485864	0.19975857193648536	0.8374489173744776	1.8086981158232056	0.27162008264467985	0.3422082558509849	0.48011037800329004	0.2177821553009591	0.12318318458562331	0.24379955638436376	0.22519523953672566	0.16858856407330144	0.43711389646314547	0.42546674344721186	0.31009474511167046	0.5058466523327968	0.49928973942718596	0.24036161908786058	0.7242885998420345	0.34371112873277965	0.046620896721254794	0.7345538677030286	0.23259415756685575	0.020992334357906338	0.7421833514517351	0.24486727490886517	-0.03654487358150086	0.7457866626642324	0.27369344655523614	-0.025075172897124267	0.7758311002584347	0.11336512384145425	0.37924699890206176	0.49918736221798765	0.04001836045066785	0.47761523827043534	0.6959259631868514	0.0877768650694779	0.19380917941077747	0.7412385679792642	0.12267542478493805	0.029757587326670307	0.7470408908151334	0.11654156479184556	0.01877160891085879	0.7568616061354713	0.11273831215300914	0.045479619509764875	0.7856720974473748
208	3.466666666666667	0.4132056243658352	0.46034779881025295	0.9402449020767111	0.4045849189943495	0.6565971067346892	1.370019838963747	0.38318150459110445	0.7878104733914018	1.7476480818532345	0.34561384871490886	0.5815885592692577	1.7811877986392668	0.405817628340001	0.5987975432672826	1.785822792706513	0.3532648237931543	0.8826641174238185	1.7983677950828658	0.18653043826707474	0.5251447110450201	0.9606065310051819	0.1814816221402327	0.6626244413596256	1.3677247742140628	0.18680156674407625	0.7499903848438365	1.7496029495932206	0.19490818719179825	0.5551373824274207	1.7684571197489145	0.1417552585612354	0.6126000468419712	1.7830687233927462	0.19989300830412313	0.8378381848803982	1.808971711331987	0.2716714707067917	0.34233777260549525	0.48000376857431665	0.22033387032944454	0.13205714074527683	0.23922061554067722	0.2253111907265885	0.16882958612829427	0.4370723859693103	0.4259415105937362	0.32412619805971477	0.5053949185598334	0.5035459595123165	0.24041881205401588	0.7238208561466	0.34329361040578404	0.06698580001653305	0.7353652379765329	0.2325575779403862	0.022125945773401556	0.7395324294575266	0.2514010249294381	-0.03632526728856528	0.745203192372045	0.27355733639494695	-0.02455005741359526	0.7728169842761147	0.11334964110025725	0.37908353215952206	0.4991431437974337	0.03808674325650641	0.4593933218544615	0.6977391807230976	0.09048747105411956	0.1688349436670065	0.7410107473439191	0.12847451175273644	0.040657500527685964	0.743855584509999	0.12423214524257603	0.011388741911053546	0.75284862451196	0.12219501606161862	0.03300524368954624	0.7752389268410231
209	3.4833333333333334	0.41329189244763204	0.46396568046898257	0.947872179654152	0.4046074800617956	0.6566267574674344	1.3700539303389663	0.38313854645196244	0.7876643123869204	1.7476671041507277	0.3456850263474957	0.5814063854580422	1.7813077927953784	0.40592881422577676	0.5985014937399058	1.7858663922619147	0.35306497602549614	0.88216371170101	1.7986432534313346	0.1859882463962157	0.5260325871967858	0.956515936891994	0.18145248155063795	0.6626026559774308	1.3677344460548029	0.18492281955650822	0.7482756762295717	1.7489393974621534	0.19490404747371906	0.5549285186703364	1.7685521795455863	0.1418706377769721	0.6119708805132243	1.7828986444898733	0.1999137037003409	0.837834262682163	1.8089771039309546	0.2720551139510024	0.3416291870780416	0.47634804264615416	0.22476654608405322	0.13467327645496696	0.2388024438321023	0.22904350989779446	0.1682832749663574	0.4336557190932243	0.4299340882025309	0.3371486139725893	0.5082890224302459	0.5066904278499541	0.22893785574797137	0.7259534556785924	0.349911553834635	0.06697015425140937	0.7352294991366355	0.22906837359030013	0.02884662453257654	0.7233532931607788	0.23905120745042427	-0.00867415683440949	0.7418011168517057	0.2653922679988958	-0.0034356502255366147	0.7710814634070247	0.1130080533281742	0.37698391951527993	0.4958592258367681	0.03494877596017132	0.455888498311419	0.6934158417188182	0.09067566983285415	0.16846819235847177	0.7410980893766808	0.1296863723200298	0.03700235346443137	0.7283966388940786	0.1274921900538191	0.019763582109085694	0.7497137491487219	0.12311013190601323	0.03447114348578478	0.7782871150960098
210	3.5	0.4127066624097263	0.4617183933440732	0.9439221253621448	0.4054944975837309	0.6592842129489421	1.3747852124832216	0.38320096246241786	0.7876759840227535	1.747690337254252	0.34372583426404674	0.580252585377713	1.781699816683989	0.4060127675027595	0.5987320723446982	1.785904826555354	0.35317305585418673	0.8825535016861631	1.7987954255441536	0.18880236067825343	0.540727266650419	0.9578104072486228	0.1815540541039225	0.6627946653648853	1.3678118076393597	0.18488758300085537	0.7483739404731895	1.749075769402389	0.1949321073388102	0.5548126468261172	1.7685298005203811	0.14197891368569288	0.6117115005350786	1.7830101980685267	0.19993435654345032	0.8376275917245669	1.8089298792906594	0.27244109105832176	0.34163274750294825	0.4761078435216822	0.22503901622099484	0.13449673406078141	0.23554539970587515	0.22876910573930387	0.16862849993025186	0.42999153059021167	0.4298647099269864	0.3375436905898267	0.5081862063291634	0.5067303572798767	0.2289634684552753	0.725976590601476	0.34623331588417045	0.07844766434565932	0.732404820267267	0.2346981599693754	0.028533852366387488	0.7192253176669976	0.25174179673218305	-0.02860801200350672	0.7352636447158021	0.27275460816782454	-0.014564762291263014	0.7639372376633811	0.11306341082585883	0.37639524580943445	0.4955989942001703	0.028710039043858625	0.4384329852079831	0.6968971590947854	0.09472269605455139	0.15254283304705213	0.7339292087729274	0.14855804556769275	0.060679797834104064	0.730123242102962	0.1331481142601511	0.039252966197327856	0.7444254344736532	0.12983063200176126	0.03265973533057597	0.7682981268276621
211	3.5166666666666666	0.41332187911210244	0.4639946101788284	0.9479808296952257	0.4054799136207174	0.659218847458753	1.3748105580547492	0.38320501040384647	0.7877780675573455	1.7476779958328779	0.3446637345879948	0.5829301184711593	1.786263909642941	0.4058726196996187	0.5986807442443893	1.7858438916171262	0.3531556758049178	0.8825882022592723	1.7987947285450487	0.1888729149632156	0.5406648195613171	0.9579492412917789	0.18148509022554551	0.6630587874513463	1.3676367252611032	0.18486952088882574	0.7483363964546017	1.7489100259344736	0.19498529360958078	0.55489908774255	1.768452531845976	0.14196462673087837	0.6117691838932101	1.7828182546133733	0.19974989701891055	0.8377897513961745	1.8089058738174761	0.2728596131227876	0.3409991602136469	0.47268723397052864	0.2251900905267014	0.13610593054740722	0.2387423283704084	0.22876161397530714	0.16611766580767645	0.4235592538853626	0.42987695254944597	0.33775312500402493	0.5082176616087027	0.5067221091694561	0.22890553284690263	0.7259998394450377	0.34606800034694835	0.07842923376000445	0.7322182298761251	0.2273269399642964	0.03702193514651628	0.7137813987024947	0.241792937445176	0.0023493932912738045	0.7337516530619784	0.2648847272961704	0.005195803678155181	0.7617739690612524	0.1130485451934788	0.3766402177633624	0.4957387287317869	0.024339140354389756	0.43571441994726773	0.7051576310434122	0.09724753474968785	0.16348718455165548	0.7337351132763267	0.15259689365105314	0.06330802271334272	0.7228225781738218	0.13803122357782088	0.022257914115917002	0.7401373671253316	0.133857905973622	0.034013474101733596	0.7679570845827207
212	3.533333333333333	0.413241146217675	0.4602783983614664	0.9400797431620087	0.4054357688875956	0.6592035568920085	1.3745533424485565	0.38319135845520585	0.7878404109306884	1.7476671814787024	0.34468665308232	0.583283820849272	1.7862885470407	0.4059498968136022	0.5993435072233354	1.7859683301634364	0.35276836874274475	0.884132087900876	1.7952329860303364	0.18940125794665819	0.5397597105652727	0.9544090881166266	0.18154456830784346	0.6629648993332818	1.3677067912904273	0.1848406079702759	0.7485329933951427	1.749010759504246	0.19493869299165456	0.5549326017293257	1.768418246844252	0.1419509270011402	0.6118433705293265	1.7829450578908972	0.1997412520364418	0.8377726542919187	1.808863526361335	0.28014447144751997	0.35329013704711193	0.47161406461607597	0.22989020174176183	0.1549671289788286	0.236156204857885	0.22905542525514416	0.16614172423942133	0.4235418473405913	0.43407133279063337	0.3383982996728149	0.508034858590722	0.5068428947261814	0.22865549886205752	0.7258313816891185	0.3427630192257568	0.0689139621977508	0.7285345505233102	0.23889753677707962	0.025742659141769375	0.6960594065749699	0.23832475895997376	-0.0002210229547349299	0.7199925591533317	0.24740721480958186	0.025560443651486874	0.7635932872541832	0.11308526977679237	0.37641723347636	0.4956361849486671	0.018906607389540017	0.3993329673210624	0.7018512109700628	0.10271113555697804	0.15182574185318884	0.7326652596551498	0.17379951571879593	0.07754962200598382	0.7082057548637348	0.1639016373571187	0.01699688366729919	0.7279551624553965	0.16165395792423576	0.020870891440094633	0.7663125386388262
213	3.55	0.4132096255595367	0.46046788038622305	0.9402672236575934	0.4055083140380454	0.6591940390845386	1.3748042767034447	0.387137527447545	0.8030544788251804	1.7525899164159082	0.3437064851889828	0.580537443078214	1.7817172693730967	0.4107106979516488	0.6009814498952243	1.7864245439122453	0.35275842381995354	0.8841968314806906	1.7952440291281744	0.1865364436239414	0.5258844003825879	0.9530939581980572	0.18153861006803645	0.6628447079171547	1.367821461248863	0.18598898696285163	0.7465856197844433	1.7438576441414257	0.19487207457456568	0.5548760517533642	1.7682481245395658	0.14185579560476777	0.6118674939170866	1.7827642386572442	0.19990578915377352	0.83755812999687	1.8085527697306047	0.2798029923236655	0.3531549960464623	0.4713522821761242	0.232419529647666	0.16483735796440752	0.23456746932438544	0.23582795199508402	0.1658418090230127	0.42335993596039295	0.434337400478546	0.33777335129761865	0.5045298724806839	0.5063162607967397	0.22678953160386933	0.7221766275221075	0.34567070019236057	0.07980777582569903	0.7286345683587951	0.2450686436642858	0.03472891499919377	0.6897842241847633	0.23305252193839152	0.019635812121932446	0.717884419163788	0.24631040355127914	0.04590261442017825	0.765152339624247	0.11290690686886148	0.3758290195358733	0.4952652231316996	0.011936532722134203	0.381727772132843	0.7025646090009755	0.10644539718769137	0.15421402344263713	0.7287439444037888	0.17537991131318423	0.08276835712250366	0.6966869907196863	0.1808736184480796	0.05369756571787016	0.7099058237818356	0.1719580900346475	0.07439664310185173	0.7691935217252855
